<?xml version="1.0" encoding="UTF-8"?>
<svg width="700pt" height="700pt" version="1.1" viewBox="0 0 700 700" xmlns="http://www.w3.org/2000/svg">
 <g>
  <path d="m192.4 69.965c-28.789 0-52.449 23.66-52.449 52.445v315.07c0 28.785 23.66 52.449 52.449 52.445h315.07c28.789 0 52.449-23.66 52.449-52.445v-315.07c0-28.785-23.66-52.445-52.449-52.445zm0 35.008h315.07c9.8711 0 17.438 7.5664 17.441 17.438v315.07c0 9.8711-7.5664 17.438-17.441 17.438h-315.07c-9.8711 0-17.441-7.5664-17.441-17.438v-315.07c0-9.8711 7.5664-17.438 17.441-17.438z"/>
  <path d="m472.43 192.44c0 9.2812-3.6875 18.184-10.25 24.746-6.5625 6.5664-15.465 10.254-24.75 10.254-9.2812 0-18.184-3.6875-24.746-10.254-6.5625-6.5625-10.25-15.465-10.25-24.746s3.6875-18.184 10.25-24.75c6.5625-6.5625 15.465-10.25 24.746-10.25 9.2852 0 18.188 3.6875 24.75 10.25 6.5625 6.5664 10.25 15.469 10.25 24.75z"/>
  <path d="m188.79 258.83-43.664 43.793v-0.003906c-3.2734 3.25-5.1289 7.6602-5.168 12.273v122.59c0.039063 4.6133 1.8945 9.0234 5.168 12.273l34.879 35.008c3.2812 3.3008 7.7461 5.1602 12.402 5.1641h315.07-0.003906c4.6133-0.039063 9.0234-1.8945 12.273-5.1641l35.008-35.008c3.2734-3.25 5.1289-7.6602 5.168-12.273v-35.008c0.015625-5.1094-2.2031-9.9688-6.0703-13.305l-94.301-80.867c-22.723-19.477-57.121-18.191-78.285 2.9688l-17.441 17.57c-7.8086 7.8086-19.965 7.8086-27.773 0l-70.016-70.016c-21.184-21.184-56.066-21.184-77.25 0zm24.805 24.672c7.8086-7.8086 19.965-7.8086 27.773 0l69.887 70.016c21.184 21.184 56.066 21.184 77.25 0l17.57-17.438c8.4609-8.4609 21.531-8.9492 30.617-1.1641l88.23 75.57v19.766l-24.672 24.672h-300.61l-24.672-24.672v-108.12z"/>
  <path d="m157.44 314.94 43.75-43.75c6.9609-6.9609 16.406-10.875 26.25-10.875 9.8477 0 19.289 3.9141 26.25 10.875l70 69.996c6.9609 6.9648 16.402 10.875 26.25 10.875 9.8438 0 19.285-3.9102 26.25-10.871l17.5-17.5h-0.003906c7.1445-7.1445 16.719-11.324 26.809-11.715 10.094-0.38672 19.961 3.0508 27.629 9.625l94.312 80.84v35l-35 35h-315l-35-35z"/>
 </g>
</svg>
