<svg id="visual" viewBox="0 0 900 900" width="900" height="900" xmlns="http://www.w3.org/2000/svg" xmlns:xlink="http://www.w3.org/1999/xlink" version="1.1"><path d="M0 499L21.5 489C43 479 86 459 128.8 445.3C171.7 431.7 214.3 424.3 257.2 428.7C300 433 343 449 385.8 441.2C428.7 433.3 471.3 401.7 514.2 412.2C557 422.7 600 475.3 642.8 484.8C685.7 494.3 728.3 460.7 771.2 448.3C814 436 857 445 878.5 449.5L900 454L900 0L878.5 0C857 0 814 0 771.2 0C728.3 0 685.7 0 642.8 0C600 0 557 0 514.2 0C471.3 0 428.7 0 385.8 0C343 0 300 0 257.2 0C214.3 0 171.7 0 128.8 0C86 0 43 0 21.5 0L0 0Z" fill="#FF725E" stroke-linecap="round" stroke-linejoin="miter"></path></svg>